
<svg width="49px" height="58px" viewBox="0 0 49 58" version="1.1" xmlns="http://www.w3.org/2000/svg" xmlns:xlink="http://www.w3.org/1999/xlink">
    <path d="M5.91737574,49.4030687 C5.82582226,49.9542209 6.18804535,50.8573404 6.60256001,51.5255569 C6.91520517,52.0295546 7.27969131,52.7341565 7.32444791,53.1982413 C7.368316,53.6531156 7.81764165,54.1629496 8.05499916,54.5455805 C8.4946102,55.2542532 9.30899716,55.0973499 9.96471659,55.248935 C10.6200259,55.400425 11.1875609,55.2986828 11.8356862,55.5505139 C12.5552804,55.8301141 13.4456397,55.8786532 14.1981038,55.9657029 C15.2875217,56.0917325 16.331332,55.8439329 17.3711,55.6516992 C18.3274436,55.4748886 19.4221224,55.2747345 20.3177462,55.481778 C21.1292278,55.6693712 22.4196417,55.206593 23.3204685,55.062943 C24.4032092,54.8902835 25.3958603,54.0616868 26.3298113,53.4671823 C27.5031721,52.7202825 28.8175122,51.5367272 29.7704378,50.5307894 C29.9400305,50.3517626 30.1096232,50.1727352 30.2792159,49.9937084 C30.9045526,49.3335836 31.0609641,48.5993133 31.7193896,47.9042583 C32.0901098,47.5129149 32.3429782,46.5094555 32.5365886,45.9981423 C32.8926119,45.0579092 33.6282654,43.7122762 34.1536572,42.8366008 C34.5111707,42.2407298 34.5730681,42.0194872 35.1798774,41.4370924 C35.959008,40.6893089 36.9353664,40.1064201 37.8767111,39.5072093 C38.7883461,38.9269103 39.3298969,38.3287845 39.8083328,37.5313694 C40.3243893,36.6712531 42.3432629,35.3847159 43.192883,34.8438921 C43.3437832,34.7478365 43.4946835,34.6517816 43.6455843,34.555726 C44.1584702,34.2292495 44.4435609,33.5069417 44.6524309,32.9553295 C45.0108277,32.0088271 45.1793998,30.9932744 45.4956234,30.073177 C45.887178,28.9338947 46.2133658,28.0347656 46.4703437,26.8940809 C46.8241074,25.3237782 47.076144,23.6134028 47.044352,22.0510768 C47.0219775,20.9517736 47.8540201,19.7748573 47.8294231,18.5662606 C47.8060477,17.417638 48.0874407,16.2593835 47.9721442,15.0638922 C47.90264,14.3431638 47.1759916,13.3266583 46.8990024,12.6553069 C46.5801967,11.8826128 46.1627621,11.1291439 45.7223691,10.4192103 C45.3374117,9.79864291 44.9906119,9.32797249 44.528408,8.83380261 C44.4441737,8.74374589 44.3516782,8.66200677 44.2633083,8.57611178 C43.705883,8.0342518 43.1818935,7.49456099 42.6253133,6.95352303 C41.9134238,6.26152372 40.9826237,5.96940309 40.2975508,5.23695415 C39.7304195,4.63059548 38.7,4.40935419 37.8770146,4.21910103 C36.4049655,3.87880436 34.8272669,3.99486597 33.5768403,3.22501627 C32.9213167,2.82143012 31.9418856,2.65064904 31.2230872,2.48448202 C30.1590384,2.23850232 29.1062137,1.86417804 28.0567114,1.62156106 C27.9119167,1.58808839 27.7793787,1.51380273 27.6407127,1.45992366 C27.111735,1.2543876 26.0910324,1.32935452 25.5908047,1.37885788 C24.3470218,1.50194428 23.1496572,1.15634249 21.9156508,1.05301803 C21.7676385,1.04062482 21.6196268,1.02823162 21.4716145,1.01583841 C20.6096351,0.943664009 19.9083615,1.14715112 19.0724938,1.05045334 C18.0939164,0.937245677 16.761185,1.51665803 15.8627944,1.81425969 C14.7247479,2.19124993 13.5885902,3.01297411 12.4568265,3.44927058 C11.7592094,3.71820296 11.3251525,4.05565237 10.8917466,4.6587388 C10.4496339,5.27393962 9.39416161,5.931853 8.7704763,6.32885841 C8.08167553,6.76731279 7.74454575,7.28284347 7.33896712,8.09296261 C6.9092375,8.95131986 6.78452593,9.79431455 6.33416463,10.5449378 C5.96339498,11.1629031 5.7845029,12.1241484 5.63116282,12.8048014 C5.43379282,13.6808987 5.1745413,14.2579072 4.97557319,15.1410964 C4.80764851,15.8864883 4.67514405,16.4746555 4.55499831,17.007962 C4.38376758,17.7680312 4.11212072,18.6869445 3.94682059,19.4206867 C3.84129786,19.8890877 3.06408335,20.4255989 2.76970006,20.9162501 C2.25836632,21.7684965 1.9235226,22.3772294 1.74552454,23.1673373 C1.58477814,23.8808646 1.34254456,24.5994209 1.29691138,25.1586612 C1.24549073,25.7888353 1.07002934,26.4050479 1.02723725,26.9294712 C0.968111092,27.6540768 1.00841211,28.5054524 1.11748492,29.1108351 C1.24992086,29.8458881 1.31106348,30.3229293 1.58498336,31.0520603 C1.83144127,31.708092 1.75124366,32.3418927 1.97703167,33.0413131 C2.21111475,33.7664303 2.11956457,34.5192591 2.19014128,35.2510797 C2.2509055,35.8811529 1.98390372,36.4059834 2.24164164,37.0306668 C2.52770292,37.7239992 3.08021313,38.2964752 3.68999256,38.3475325 C4.17906205,38.3884834 4.88685427,38.8482041 5.32594668,39.1185403 C5.90407335,39.4744752 5.69234679,40.0422221 5.92497222,40.7628225 C6.20238164,41.6221508 6.25396581,41.9907176 6.19415811,42.723673 C6.13728906,43.4206174 6.1379321,44.1695579 6.35985576,44.8570082 C6.55445148,45.4598057 6.74824557,45.9779403 6.8079807,46.597346 C6.85342599,47.0685761 6.67545724,47.9063893 6.41544486,48.3397538 C6.26092161,48.5972997 6.0718903,49.0542275 5.91737574,49.4030687 Z" id="path3389" fill="#F9F9F9"></path>
    <path d="M32.7390401,3 L32.3125189,3.41780396 C32.8669803,3.97521535 33.5436275,4.24233277 34.125956,4.51707341 C34.708284,4.79181412 35.1984103,5.06274758 35.4846778,5.57885595 C36.1462287,6.77155194 36.3972833,7.24071113 36.107201,8.58541935 C35.8177733,9.92709049 34.9669174,11.7882855 34.0436243,12.8024978 C33.041186,13.9036463 32.5011224,14.864663 31.7139978,15.810432 C30.9138939,16.7717964 29.8806426,17.8708584 29.6562631,19.2499129 C29.4387348,20.5868694 29.7606895,21.8844778 29.5648207,23.0049193 C29.3412921,24.2835876 29.6111072,25.6228385 30.4402334,26.5839274 C30.8859818,27.100621 31.5364275,27.3732655 32.035136,27.7126694 C32.2844906,27.8823711 32.5023121,28.0563394 32.6381196,28.2591817 C32.7739277,28.4620239 32.853139,28.6957461 32.8353591,29.0169921 C32.7926029,29.7895021 32.8046314,30.6643301 32.800604,31.4250786 C32.7968972,32.1253131 32.7701707,32.7295399 32.6962016,33.0383842 C32.693462,33.0498231 32.6778406,33.0625824 32.6750057,33.0731668 C32.3472973,33.6087102 31.96815,33.7736396 31.1438087,34.2693042 C30.6955409,34.5388412 30.1978241,34.9540703 29.656777,35.3302704 C29.1157294,35.7064706 28.5468988,36.0384454 28.0395415,36.1503667 C26.8457074,36.4137241 25.7933697,36.8776624 24.7627804,37.1076217 C24.2386647,37.2245699 23.637936,37.3285181 23.0904128,37.5323063 C22.8166515,37.6342001 22.555957,37.7699539 22.3195403,37.9509459 C22.0831241,38.1319373 21.8764376,38.3561713 21.7234557,38.6470075 C21.4098987,39.243115 21.5793417,39.8246626 21.8724615,40.2519806 C22.1655808,40.6792981 22.5603255,41.0359173 22.8038246,41.3881202 C23.0644531,41.765098 23.3595837,42.2570935 23.5210403,42.7659649 C23.6824962,43.2748369 23.7081248,43.7815117 23.5226148,44.2053598 C23.3325266,44.6396671 22.9462485,44.9606289 22.52914,45.3654623 C22.1120314,45.7702958 21.6700506,46.2672658 21.4865946,47.0292806 C21.1667756,48.3576932 20.3349174,50.3048394 19.8688597,51.6118811 C19.6269398,52.2903376 19.5489111,52.905553 19.4205242,53.3977455 C19.2921378,53.8899379 19.1332761,54.2533589 18.7307844,54.5609701 C17.7946282,55.2764431 16.9652684,55.9707345 16,56.4874345 L16.2798276,57 C17.3128633,56.4470245 20.2900132,56.5055807 21.2139219,55.7994683 C21.7414628,55.3962879 26.5936868,52.7983953 27.1045242,52.5590766 C29.2407991,51.5582702 31.9610046,48.5841663 32.0855767,46.8144852 C32.1803737,45.4678361 35.4081349,41.5332357 35.7507172,40.1102704 C35.898461,39.4965974 41.8854063,36.5952811 42.2819883,36.2103692 C42.6785697,35.8254598 45.3593847,30.6683009 45.6177121,30.0780823 C45.8806165,29.4774035 47.3035128,23.1938675 47.1161906,22.6034678 C46.9288631,22.0130693 48.2434843,17.4761864 47.9597035,17.0657186 C47.6587917,16.6304793 47.3090183,13.4026513 47.0755176,13.0622443 C46.8420122,12.7218415 45.324257,10.8671389 45.5408521,10.4553686 C45.7650429,10.0291602 41.836852,7.34683262 42.3079182,7.17150123 C42.7642618,7.0016493 36.692515,4.01421137 36.8111191,3.71561184 C36.7279236,3.74302943 36.6746346,3.91160572 36.6459417,4.20610256 C36.0091474,3.96739926 34.862327,4.2220239 34.378108,3.99357044 C33.7746181,3.70884585 33.1896843,3.45304202 32.7390401,3 Z" id="path3339" fill="#ECECEC"></path>
    <path d="M26.4635762,54.7464414 C22.265189,57.4014048 18.6978485,58.2973124 13.8419754,57.9162536 C11.3347001,57.7194974 8.76380734,56.9738306 8.34716021,56.3225257 C8.23068759,56.1404552 7.86233556,55.9287777 7.52860041,55.8521326 C5.86650645,55.4704183 4.49026048,50.4385059 5.2775688,47.6217789 C5.52302684,46.743613 5.54291941,45.7353473 5.32177505,45.3811886 C5.10063039,45.0270292 4.8903535,43.6824864 4.85449243,42.3933157 C4.79457612,40.2393391 4.68944422,40.0360589 3.55733007,39.8851467 C1.47367397,39.6073933 1.54880221,38.1542954 1.3887545,35.9897189 C1.87713567,33.3795389 0.497013028,31.7530104 0.189656626,29.0950206 C-0.575406933,25.9851854 1.13181457,20.5408674 2.50060881,20.3377938 C3.46403262,18.6830118 3.39900707,17.4353177 3.91131838,15.2653875 C5.83112515,5.95506269 12.9547322,0.772902668 21.8842138,0.020040322 C24.7402192,-0.220755406 34.5280818,1.75802434 38.0579283,3.28982334 C41.3721683,4.72806409 44.9795412,7.95511137 46.4745364,10.1434912 C49.914393,15.1693945 49.3070617,20.025414 47.7851766,26.4803266 C45.8033393,34.8860785 45.2076236,35.9130437 40.6339233,38.8084938 C34.9992024,42.375639 34.3252673,43.221005 33.2385023,48.0851081 C31.9191505,51.4470131 30.3593155,52.3936772 26.4635762,54.7464414 Z M32.1227911,44.912123 C33.1195258,40.6920189 34.7724079,37.7412627 37.3424006,35.5939791 C39.1883352,34.0516603 39.6966775,33.8391348 40.0782359,34.4501933 C40.3804924,34.9342516 39.8898532,35.8231697 38.6962665,36.9539865 L36.8456616,38.7072694 L39.4075359,37.3342145 C40.8165678,36.5790343 42.3841731,35.5253864 42.8911047,34.9927741 C44.2369064,33.5787954 47.1323005,22.5869715 47.2835337,18.3177265 C47.4023606,14.9633884 47.219891,14.337137 45.1669199,11.0533481 C43.5593056,8.48191288 43.7589009,8.76653288 41.5644292,7.05457234 C39.333312,5.31402515 31.1931203,2.94679305 25.4481697,2.30659334 C15.8572647,1.56291597 9.83862992,4.9525157 6.04091083,13.2364534 C5.15336402,15.1724523 4.68039318,19.547128 3.94924491,20.6653366 C2.43563789,23.0817065 2.09987847,23.8460575 1.73731254,26.3893153 C1.50978507,27.2750328 1.46515322,28.7822232 1.47483125,29.1460771 C1.54062714,31.6196705 3.34968126,33.8845885 2.87061742,36.3025298 C2.95035166,37.749249 2.03872026,37.7778007 4.53693602,38.4000206 L7.27996892,39.0832149 L6.73340096,40.7144764 C6.4327887,41.6116696 6.50747204,43.1889839 6.8993634,44.2196191 C7.5390935,45.9020453 7.75789109,46.0028605 8.00204943,44.9149404 C8.37507353,43.2528205 9.73746212,43.5325865 9.5384472,45.0445813 C9.37198011,46.3092967 10.2918268,46.0682661 10.591306,44.7476324 C10.9609607,43.1175437 12.5306815,43.5883784 12.2399057,45.2479212 C11.6770829,46.9657415 13.1960258,46.3426713 13.2345795,45.1617103 C13.4915957,43.6456467 15.1605925,43.9875338 15.1136658,45.5646025 C15.6321133,47.1246676 16.5103955,46.224141 16.3029031,45.283091 C16.0847932,44.2938844 17.8561854,43.516578 18.030083,45.4341643 C18.2572806,46.8163075 19.0850649,46.3867012 19.1658233,45.3545684 C19.0787562,44.1906269 20.5916728,44.0487621 20.7562333,44.9881445 C21.0131533,46.4547536 22.0298819,46.1382879 21.9254902,44.8182087 C21.8264678,43.5660283 23.538908,43.074706 23.6106115,44.3668594 C23.6728372,45.4882237 25.7554808,43.3945548 28.2216316,40.2324973 C30.5594201,37.2350232 30.6294044,37.1868248 32.2312346,37.4710645 C34.1149595,37.805325 34.2181735,39.2344914 32.3654385,39.3293376 C31.5584749,39.3706482 30.6560332,40.1292114 29.3625931,41.85343 C28.3455506,43.2091981 26.733293,44.8118003 25.7797982,45.4147686 C24.5700265,46.1797999 23.3850887,47.2452458 23.711892,47.7686158 C24.0378515,49.1686158 22.5801725,50.0228242 22.2235529,48.6293335 C21.6090937,47.3819866 21.0295496,47.625997 21.1403831,48.8582909 C21.4313983,50.6194065 19.4168747,50.705699 19.325304,48.9733654 C18.9801856,47.7665147 18.199693,48.0515995 18.2338422,49.0734442 C18.3001866,51.058679 16.5514683,51.3431071 16.3276829,49.4204748 C16.1284022,47.7083737 15.1749209,48.0197597 15.0087982,49.4257026 C14.9183048,51.2211607 13.2350003,50.7958452 13.1805227,49.2088292 C13.2439677,47.4570272 12.0488383,47.7184368 11.9103767,49.2398948 C11.5283881,50.6447435 10.4557097,50.807919 10.1352848,49.4338944 C10.7097027,48.2561204 9.23878849,46.4690968 9.04289767,48.5712191 C8.9883972,49.3153765 8.5925209,49.9268678 8.16317256,49.9300897 C7.61707169,49.9341879 7.46101789,49.4880512 7.64375215,48.4451348 C7.80004067,47.5531472 7.67152816,47.1019408 7.32381141,47.3218289 C6.40529964,47.9026739 6.70438799,52.0262294 7.79165535,53.7720304 C8.6034623,55.0755307 9.51923725,55.4688605 12.9104848,55.9705914 C17.9671081,56.7187125 19.7688047,56.3105015 25.7156643,53.0693175 C30.8105443,50.2924839 30.8698536,50.2169744 32.1227911,44.912123 Z M25.4204112,35.4238419 C24.4612392,35.397047 22.5896886,35.1639247 21.2614093,34.905792 C18.667287,34.4016582 18.2246841,33.8300739 15.3394574,27.2580854 C14.2116588,24.6891788 14.2284213,24.4608504 15.6244978,23.375427 C18.1307644,21.4268501 20.699202,21.670424 25.7618323,24.3367851 C28.3228839,25.6856269 29.1419959,26.5614898 29.8466426,27.5440418 C30.5512894,28.5265937 30.9023832,29.2891058 30.5435778,30.8713534 C29.8125867,34.0948499 28.2287148,35.5022916 25.4204112,35.4238419 Z M13.4936548,38.8868408 C12.8261845,38.7335501 11.941927,38.821966 11.5286387,39.08332 C9.624958,40.2871638 8.32661647,36.787037 9.50332098,33.6233792 C10.6603097,30.5127279 12.0426465,30.6172882 14.1386473,33.9739954 C16.5527792,37.8401835 16.3298517,39.5381977 13.4936548,38.8868408 Z M4.56469084,32.1538541 C2.77748908,31.1610702 2.09458093,30.877506 2.15659357,27.7484883 C2.28108212,21.4670977 7.55871127,21.5287081 10.5402694,24.4787302 C11.4693323,25.3979658 11.5497023,26.0385787 10.9658734,27.8711174 C9.99220334,30.9272995 6.52846879,33.244725 4.56469084,32.1538541 Z" id="path3332" fill="currentColor" fill-rule="nonzero"></path>
</svg>
